<?xml version="1.0" standalone="no"?>
<!DOCTYPE svg PUBLIC "-//W3C//DTD SVG 20010904//EN"
 "http://www.w3.org/TR/2001/REC-SVG-20010904/DTD/svg10.dtd">
<svg version="1.0" xmlns="http://www.w3.org/2000/svg"
 width="305.000000pt" height="305.000000pt" viewBox="0 0 305.000000 305.000000"
 preserveAspectRatio="xMidYMid meet">
<metadata>
Created by potrace 1.14, written by Peter Selinger 2001-2017
</metadata>
<g transform="translate(0.000000,305.000000) scale(0.100000,-0.100000)"
fill="#000000" stroke="none">
<path d="M1235 2564 c-14 -15 -25 -34 -26 -43 -3 -42 4 -68 24 -87 21 -20 628
-269 692 -284 84 -19 146 92 86 153 -9 10 -118 58 -242 108 -123 49 -233 94
-244 100 -12 6 -27 11 -35 13 -15 3 -28 8 -113 45 -68 29 -112 28 -142 -5z"/>
<path d="M1251 2362 c-5 -9 -22 -51 -39 -92 -16 -41 -39 -100 -51 -130 -13
-30 -76 -189 -143 -354 -66 -164 -116 -302 -111 -306 4 -4 40 -20 78 -35 39
-15 88 -35 110 -44 89 -40 436 -174 438 -170 2 2 28 67 59 144 36 92 60 139
69 138 8 -1 26 -5 42 -9 20 -5 27 -3 27 8 0 8 6 22 13 31 11 16 58 -1 537
-193 660 -265 631 -255 676 -234 19 9 42 30 50 46 19 37 13 94 -13 119 -15 15
-303 142 -348 153 -5 2 -21 8 -35 13 -14 6 -50 21 -80 32 -30 12 -68 28 -85
35 -46 20 -299 121 -305 121 -3 0 -10 4 -17 8 -6 4 -40 18 -75 31 -35 14 -76
30 -93 37 -16 7 -50 20 -75 29 -45 17 -47 20 -34 71 5 24 2 28 -25 34 -17 4
-31 11 -31 16 0 5 23 65 50 134 28 69 50 127 50 129 0 2 -37 18 -82 36 -46 17
-188 74 -316 125 -205 83 -233 92 -241 77z"/>
<path d="M793 1440 c-40 -24 -52 -73 -29 -117 16 -31 27 -37 271 -136 485
-196 471 -192 521 -142 43 43 27 122 -30 149 -85 40 -665 266 -682 266 -10 0
-33 -9 -51 -20z"/>
<path d="M144 793 l1 -97 955 -1 c525 0 963 1 973 3 15 4 17 17 17 98 l0 94
-974 0 -974 0 2 -97z"/>
<path d="M108 662 l-68 -3 0 -137 0 -137 1075 0 1075 0 1 30 c2 78 0 237 -4
241 -5 5 -1976 11 -2079 6z"/>
</g>
</svg>
